<?xml version="1.0" encoding="UTF-8"?>
<svg id="Capa_1" xmlns="http://www.w3.org/2000/svg" version="1.1" viewBox="0 0 500 500">
  <!-- Generator: Adobe Illustrator 30.1.0, SVG Export Plug-In . SVG Version: 2.1.1 Build 136)  -->
  <defs>
    <style>
      .st0 {
        fill: #eee500;
      }

      .st1 {
        fill: #1d1d1b;
      }
    </style>
  </defs>
  <rect class="st1" x=".42" y="-8.05" width="499.16" height="516.11"/>
  <g>
    <path class="st0" d="M72.36,257.81c22.99.17,45.99.34,68.98.51,36.49.27,72.99.54,109.48.81,8.46.06,16.92.13,25.38.19,7.89.06,14.6-6.75,14.6-14.6s-6.68-14.54-14.6-14.6c-22.99-.17-45.99-.34-68.98-.51-36.49-.27-72.99-.54-109.48-.81-8.46-.06-16.92-.13-25.38-.19-7.89-.06-14.6,6.75-14.6,14.6s6.68,14.54,14.6,14.6h0Z"/>
    <path class="st0" d="M276.96,213.43c-.38,22.58-.76,45.16-1.15,67.74-.24,14.1,21.66,14.1,21.9,0,.38-22.58.76-45.16,1.15-67.74.24-14.1-21.66-14.1-21.9,0h0Z"/>
    <path class="st0" d="M311.89,196.99c-.33,27.43-.67,54.85-1,82.28-.05,3.95-.1,7.89-.14,11.84-.17,14.1,21.73,14.11,21.9,0,.33-27.43.67-54.85,1-82.28.05-3.95.1-7.89.14-11.84.17-14.1-21.73-14.11-21.9,0h0Z"/>
    <path class="st0" d="M415.55,213.58c.38,22.58.76,45.16,1.15,67.74.24,14.08,22.14,14.12,21.9,0-.38-22.58-.76-45.16-1.15-67.74-.24-14.08-22.14-14.12-21.9,0h0Z"/>
    <path class="st0" d="M380.61,197.14c.33,27.43.67,54.85,1,82.28.05,3.95.1,7.89.14,11.84.17,14.08,22.08,14.12,21.9,0-.33-27.43-.67-54.85-1-82.28-.05-3.95-.1-7.89-.14-11.84-.17-14.08-22.08-14.12-21.9,0h0Z"/>
    <path class="st0" d="M346.83,186.74c-.33,31.41-.67,62.81-1,94.22-.05,4.54-.1,9.07-.14,13.61-.15,14.1,21.75,14.11,21.9,0,.33-31.41.67-62.81,1-94.22.05-4.54.1-9.07.14-13.61.15-14.1-21.75-14.11-21.9,0h0Z"/>
    <path class="st0" d="M347.89,204.76c10.81-1.71,16.67,5.32,17.82,15.41,2.36,20.62,1.5,60.87.15,82.22-.33,5.17-2.38,9.01-2.21,14.77.35,11.63,7.65,24.44,3.46,37.13-2.31,7-10.01,6.4-12.61-.52-4.44-11.79,6.76-27.56,4.45-41.4-1.44-8.61-3.04-5.22-6.87-9.99-4.57-5.68-2.63-12.56-3.1-19.06-.1-1.36-1.09-2.77-1.09-3.13v-75.44Z"/>
  </g>
</svg>