<?xml version="1.0" encoding="UTF-8"?>
<svg id="Capa_1" xmlns="http://www.w3.org/2000/svg" version="1.1" viewBox="0 0 500 500">
  <!-- Generator: Adobe Illustrator 30.1.0, SVG Export Plug-In . SVG Version: 2.1.1 Build 136)  -->
  <defs>
    <style>
      .st0 {
        fill: #eee500;
      }

      .st1 {
        fill: #1d1d1b;
      }
    </style>
  </defs>
  <rect class="st1" x=".42" y="-8.05" width="499.16" height="516.11"/>
  <g>
    <g>
      <path class="st0" d="M357.17,122.53c6.31-.09,10.28-1.78,16.99.97,14.69,6.02,10.53,20.66,20.31,28.27,14.36,11.18,32.86-7.94,23.4-22-8.25-12.25-23.44-4.48-34.08-10.75-12.32-7.25-10.16-30.47-29.24-28.68-20.23,1.9-20.14,32.53,2.62,32.19Z"/>
      <path class="st0" d="M402.39,97.57c-2.02-2.59-4.51-3.66-7.4-4.98,1.62-3.83,1.27-9.53-.93-13.07-1.16-1.87-5.41-6.65-7.18-3.37-.95,1.77,1.19,2.61,2.26,3.86,2.18,2.53,3.07,5.7,2.7,9.02-.07.62-.57,3.06-.87,3.42-.7.84-1.65.35-2.3.62-6.76,2.83-8.91,12.17-4.26,17.7,6.11,7.27,17.7,3.56,19.5-5.24.63-3.08-1.32-3.76,2.1-5.89,2.28-1.43,6.02-2.54,8.69-1.94,2.31.52,5.95,3.95,6.76-.36.31-1.66-4.97-3.47-6.37-3.77-4.31-.92-9.52,1.1-12.71,4.01Z"/>
      <path class="st0" d="M367.82,164.98c1.5-1.52,6.59-4.6,7.13-6.52.2-.71-3.07-4.93-3.77-5.71-3.36-3.78-7.35-6.84-11.92-9-1.4-.66-9.73-3.78-10.62-3.01-.76,1.1-3.45,9.27-2.83,9.77,8.97,1.46,16.73,7.25,22.01,14.47Z"/>
      <path class="st0" d="M359.65,129.26c-1.03.33-6.99,4.13-6.94,4.78,2.49.36,4.92,1.2,7.23,2.19,6.1,2.62,10.5,5.62,15.22,10.25,1.69,1.66,3.05,3.59,4.85,5.14,4.53-10.31-2.85-22.08-14.14-22.86-1.31-.09-5.07.14-6.23.5Z"/>
      <path class="st0" d="M344.34,157.18c-1.52,3.67-2.35,13.85,1.15,16.36,4.14,2.97,12.43-2.36,16.05-4.58-3.49-6.31-10.51-9.87-17.2-11.78Z"/>
    </g>
    <path class="st0" d="M111.23,288.42c19.68,40.81,39.37,81.63,59.05,122.44,2.75,5.71,5.51,11.42,8.26,17.13,4.94,10.25,19.88,8.73,25.22,0,15.24-24.91,30.48-49.81,45.72-74.72,24.32-39.75,48.65-79.49,72.97-119.24,5.62-9.19,11.25-18.38,16.87-27.57,4.12-6.73,1.47-16.06-5.24-19.98s-15.85-1.51-19.98,5.24c-15.24,24.91-30.48,49.81-45.72,74.72-24.32,39.75-48.65,79.49-72.97,119.24-5.62,9.19-11.25,18.38-16.87,27.57h25.22c-19.68-40.81-39.37-81.63-59.05-122.44-2.75-5.71-5.51-11.42-8.26-17.13-3.43-7.1-13.56-8.99-19.98-5.24-7.26,4.24-8.68,12.85-5.24,19.98h0Z"/>
  </g>
</svg>