<?xml version="1.0" encoding="UTF-8"?>
<svg id="Capa_2" data-name="Capa 2" xmlns="http://www.w3.org/2000/svg" viewBox="0 0 450 450">
  <defs>
    <style>
      .cls-1 {
        fill: none;
        stroke: #eee500;
        stroke-dasharray: 24.04;
        stroke-miterlimit: 10;
        stroke-width: 17.82px;
      }

      .cls-2 {
        fill: #eee500;
      }
    </style>
  </defs>
  <g>
    <path class="cls-2" d="M334.02,131.35c6.91.86,11.51-.38,18.44,3.64,15.15,8.81,8.37,24.2,17.9,34.01,14,14.41,37.14-3.68,28.94-20.49-7.15-14.65-24.95-8.47-35.63-16.94-12.36-9.81-6.47-34.87-27.6-35.82-22.41-1.01-26.97,32.5-2.04,35.6Z"/>
    <path class="cls-2" d="M387.27,110.93c-1.81-3.14-4.37-4.69-7.33-6.57,2.35-3.94,2.84-10.22.98-14.43-.98-2.22-4.91-8.1-7.34-4.78-1.31,1.79.91,3.04,1.89,4.56,2,3.1,2.49,6.7,1.58,10.27-.17.66-1.09,3.25-1.47,3.61-.89.81-1.86.13-2.61.33-7.82,2.07-11.6,11.95-7.35,18.71,5.57,8.88,18.81,6.58,22.12-2.76,1.16-3.27-.87-4.31,3.2-6.12,2.71-1.21,6.97-1.86,9.8-.8,2.45.92,5.9,5.23,7.44.64.6-1.77-4.9-4.55-6.39-5.1-4.57-1.67-10.57-.25-14.51,2.44Z"/>
    <path class="cls-2" d="M339.21,179.38c1.87-1.43,7.91-4.02,8.79-6.04.33-.75-2.61-5.86-3.25-6.82-3.09-4.65-6.99-8.59-11.66-11.65-1.43-.94-10.06-5.61-11.16-4.9-1,1.09-5.19,9.62-4.58,10.25,9.58,2.97,17.19,10.48,21.87,19.17Z"/>
    <path class="cls-2" d="M335.72,139.08c-1.18.2-8.27,3.46-8.32,4.17,2.66.77,5.2,2.06,7.57,3.49,6.27,3.8,10.62,7.75,15.08,13.53,1.6,2.07,2.79,4.4,4.53,6.36,6.53-10.58.24-24.58-11.98-27.15-1.42-.3-5.57-.62-6.89-.4Z"/>
    <path class="cls-2" d="M314.72,167.28c-2.22,3.78-4.68,14.78-1.23,18.07,4.07,3.88,13.95-.69,18.25-2.57-2.85-7.43-9.99-12.4-17.02-15.5Z"/>
  </g>
  <polyline class="cls-1" points="41.78 365.84 153.29 254.33 199.32 300.35 298.66 199.09"/>
</svg>