<?xml version="1.0" encoding="UTF-8"?>
<svg id="Capa_2" data-name="Capa 2" xmlns="http://www.w3.org/2000/svg" viewBox="0 0 450 450">
  <defs>
    <style>
      .cls-1 {
        fill: #eee500;
      }
    </style>
  </defs>
  <path class="cls-1" d="M364.57,66.94c3.67.46,6.12-.2,9.8,1.94,8.05,4.68,4.45,12.86,9.51,18.08,7.44,7.66,19.74-1.95,15.38-10.89-3.8-7.79-13.26-4.5-18.94-9-6.57-5.21-3.44-18.53-14.67-19.04-11.91-.53-14.34,17.27-1.09,18.92Z"/>
  <path class="cls-1" d="M393.11,60.84c.62-1.74-.46-2.29,1.7-3.26,1.44-.64,3.7-.99,5.21-.42,1.3.49,3.14,2.78,3.96.34.32-.94-2.6-2.42-3.4-2.71-2.43-.89-5.62-.13-7.71,1.3-.96-1.67-2.32-2.49-3.9-3.49,1.25-2.09,1.51-5.43.52-7.67-.52-1.18-2.61-4.31-3.9-2.54-.7.95.48,1.62,1,2.43,1.06,1.65,1.32,3.56.84,5.46-.09.35-.58,1.73-.78,1.92-.47.43-.99.07-1.39.17-4.16,1.1-6.16,6.35-3.91,9.94,2.96,4.72,10,3.5,11.76-1.47Z"/>
  <path class="cls-1" d="M358.14,76.84c-.53.58-2.76,5.11-2.44,5.45,5.09,1.58,9.14,5.57,11.62,10.19.99-.76,4.2-2.14,4.67-3.21.17-.4-1.39-3.11-1.73-3.63-1.64-2.47-3.72-4.57-6.2-6.19-.76-.5-5.35-2.98-5.93-2.61Z"/>
  <path class="cls-1" d="M373.08,82.31c.85,1.1,1.48,2.34,2.41,3.38,3.47-5.62.13-13.06-6.37-14.43-.75-.16-2.96-.33-3.66-.21-.63.11-4.4,1.84-4.42,2.22,1.42.41,2.76,1.09,4.02,1.86,3.33,2.02,5.65,4.12,8.02,7.19Z"/>
  <path class="cls-1" d="M363.35,94.28c-1.52-3.95-5.31-6.59-9.05-8.24-1.18,2.01-2.49,7.86-.66,9.6,2.17,2.06,7.41-.37,9.7-1.36Z"/>
  <path class="cls-1" d="M402.57,367.79c.53-11.91-17.27-14.34-18.92-1.08-.46,3.67.2,6.12-1.94,9.8-4.68,8.05-12.86,4.45-18.08,9.51-7.66,7.44,1.95,19.74,10.89,15.38,7.79-3.8,4.5-13.26,9-18.94,5.21-6.57,18.53-3.44,19.04-14.67Z"/>
  <path class="cls-1" d="M408.2,387.73c-.95-.7-1.62.48-2.43,1-1.65,1.06-3.56,1.32-5.46.84-.35-.09-1.73-.58-1.92-.78-.43-.47-.07-.99-.17-1.39-1.1-4.16-6.35-6.16-9.94-3.91-4.72,2.96-3.5,10,1.47,11.76,1.74.62,2.29-.46,3.26,1.7.64,1.44.99,3.7.42,5.21-.49,1.3-2.78,3.14-.34,3.96.94.32,2.42-2.6,2.71-3.4.89-2.43.13-5.62-1.3-7.71,1.67-.96,2.49-2.32,3.49-3.9,2.09,1.25,5.43,1.51,7.67.52,1.18-.52,4.31-2.61,2.54-3.9Z"/>
  <path class="cls-1" d="M361.33,374.14c.4.17,3.11-1.39,3.63-1.73,2.47-1.65,4.57-3.72,6.19-6.2.5-.76,2.98-5.35,2.61-5.93-.58-.53-5.11-2.76-5.45-2.44-1.58,5.09-5.57,9.14-10.19,11.62.76.99,2.14,4.2,3.21,4.67Z"/>
  <path class="cls-1" d="M377.32,363.19c-.41,1.42-1.09,2.76-1.86,4.02-2.02,3.33-4.12,5.65-7.19,8.02-1.1.85-2.34,1.48-3.38,2.41,5.62,3.47,13.06.13,14.43-6.37.16-.75.33-2.96.21-3.66-.11-.62-1.84-4.4-2.22-4.42Z"/>
  <path class="cls-1" d="M364.55,356.45c-2.01-1.18-7.86-2.49-9.6-.66-2.06,2.17.37,7.41,1.36,9.7,3.95-1.52,6.59-5.31,8.24-9.04Z"/>
  <path class="cls-1" d="M245.48,370.56c-4.04,3.14-5.78,6.18-11.47,7.68-12.45,3.29-16.92-8.22-26.97-8.37-14.76-.21-17.39,21.21-4.39,25.68,11.33,3.9,17.36-8.56,27.31-9.71,11.52-1.33,21.48,14.75,32.95,4.27,12.16-11.12-2.87-30.9-17.43-19.55Z"/>
  <path class="cls-1" d="M245.57,413.72c-2.65-.57-4.78-2.19-6.16-4.51-.26-.43-1.13-2.26-1.11-2.64.04-.88.9-1.03,1.19-1.53,2.99-5.14-.18-12.23-5.9-13.54-7.51-1.72-13.19,6.35-10.05,12.93,1.1,2.3,2.69,1.79,1.52,4.84-.78,2.04-2.65,4.59-4.68,5.5-1.75.79-5.78.35-4.2,3.54.61,1.23,4.91-.18,5.97-.67,3.24-1.51,5.62-5.37,6.27-8.81,2.57.69,4.71.17,7.22-.4.82,3.27,3.84,6.79,6.99,8.01,1.67.64,6.76,1.66,6.3-1.33-.25-1.61-2.05-1.11-3.35-1.39Z"/>
  <path class="cls-1" d="M216.4,356.01c.22.56,4.4,1.69,5.24,1.85,4.02.81,8.1.83,12.11,0,1.23-.26,8.14-2.31,8.34-3.25-.05-1.09-2.3-7.69-2.94-7.7-6.52,3.44-14.37,3.49-21.32,1.4-.23,1.72-2.02,6.2-1.43,7.7Z"/>
  <path class="cls-1" d="M236.8,370.8c.89-.58,3.22-2.57,3.78-3.37.51-.72,2.5-6.09,2.15-6.49-1.78.98-3.77,1.63-5.75,2.12-5.23,1.29-9.54,1.49-14.86.81-1.91-.25-3.73-.84-5.65-.95,2.11,8.89,12.64,12.89,20.32,7.88Z"/>
  <path class="cls-1" d="M228.09,331.84c-4.13.1-6.89,7.61-8.15,10.81,5.34,2.38,11.63,1.25,16.89-.79-.81-3.12-5.25-10.11-8.74-10.03Z"/>
  <path class="cls-1" d="M204.27,80.12c10.05-.14,14.52-11.66,26.97-8.37,5.69,1.5,7.44,4.54,11.47,7.68,14.56,11.35,29.6-8.43,17.43-19.55-11.47-10.48-21.43,5.59-32.95,4.27-9.95-1.15-15.98-13.6-27.31-9.71-13,4.47-10.37,25.89,4.39,25.68Z"/>
  <path class="cls-1" d="M217.61,35.23c2.02.92,3.9,3.47,4.68,5.5,1.17,3.05-.42,2.54-1.52,4.84-3.14,6.57,2.54,14.65,10.06,12.93,5.72-1.31,8.89-8.4,5.9-13.54-.29-.49-1.14-.65-1.19-1.53-.02-.38.85-2.21,1.11-2.64,1.38-2.32,3.51-3.94,6.16-4.51,1.3-.28,3.1.22,3.35-1.39.46-2.99-4.63-1.97-6.3-1.33-3.15,1.22-6.17,4.74-6.99,8.01-2.51-.56-4.65-1.09-7.22-.4-.65-3.44-3.03-7.3-6.27-8.81-1.06-.49-5.36-1.9-5.97-.67-1.58,3.19,2.45,2.74,4.2,3.54Z"/>
  <path class="cls-1" d="M215.06,101.7c6.95-2.08,14.8-2.04,21.32,1.4.64-.01,2.9-6.62,2.94-7.7-.2-.94-7.11-2.99-8.34-3.25-4.01-.84-8.09-.81-12.11,0-.84.17-5.02,1.29-5.24,1.85-.59,1.51,1.2,5.99,1.43,7.7Z"/>
  <path class="cls-1" d="M234.22,86.94c1.98.49,3.96,1.14,5.75,2.12.35-.39-1.65-5.77-2.15-6.49-.57-.8-2.89-2.79-3.78-3.37-7.68-5.01-18.22-1.01-20.32,7.88,1.92-.11,3.75-.7,5.65-.95,5.32-.69,9.63-.48,14.86.81Z"/>
  <path class="cls-1" d="M225.32,118.16c3.5.08,7.93-6.91,8.74-10.03-5.26-2.04-11.55-3.17-16.89-.79,1.26,3.21,4.02,10.71,8.15,10.81Z"/>
  <path class="cls-1" d="M357.04,252.45c9.39-12.38-7.53-20.83-7.26-32.42.23-10.01,12.09-17.16,7.17-28.08-5.64-12.54-26.73-7.96-25.17,6.71,1.06,9.99,12.93,13.39,10.8,26.09-.98,5.8-3.84,7.82-6.6,12.12-9.97,15.54,11.1,28.7,21.06,15.57Z"/>
  <path class="cls-1" d="M380.65,236.24c3.02.19,1.54-4.79.75-6.39-1.5-3.03-5.28-5.71-8.61-6.23.33-2.55.66-4.73-.26-7.23,3.37-.96,6.99-3.68,8.2-7.05.39-1.1,1.4-5.51.13-6.01-3.32-1.28-2.51,2.69-3.14,4.5-.73,2.1-3.1,4.2-5.05,5.16-2.93,1.44-2.57-.19-4.96-1.07-6.83-2.52-14.35,3.87-11.95,11.19,1.82,5.57,9.18,8.08,14.02,4.64.47-.33.54-1.2,1.41-1.32.38-.05,2.28.64,2.73.86,2.44,1.17,4.25,3.14,5.06,5.72.4,1.27.06,3.11,1.69,3.21Z"/>
  <path class="cls-1" d="M319.78,234.97c.91-.29,2.33-7.36,2.47-8.61.47-4.07.07-8.13-1.1-12.06-.24-.82-1.75-4.88-2.32-5.04-1.55-.45-5.85,1.74-7.54,2.13,2.71,6.73,3.38,14.55.55,21.36.07.64,6.86,2.28,7.94,2.23Z"/>
  <path class="cls-1" d="M325.71,208.69c.29,1.9,1.04,3.67,1.46,5.54,1.17,5.24,1.36,9.55.55,14.88-.3,2.01-.77,4.05-1.59,5.92.42.31,5.6-2.17,6.26-2.74.75-.64,2.51-3.14,3.01-4.08,4.29-8.11-.66-18.23-9.71-19.52Z"/>
  <path class="cls-1" d="M306.61,230.9c1.55-5.43,2.1-11.79-.76-16.9-3.08,1.55-10.3,4.98-10.02,9.1.23,3.49,7.61,7.27,10.78,7.79Z"/>
  <path class="cls-1" d="M117.09,236.88c-2.76-4.31-5.63-6.32-6.6-12.12-2.14-12.7,9.74-16.1,10.8-26.09,1.56-14.68-19.53-19.25-25.17-6.71-4.92,10.92,6.94,18.07,7.17,28.08.27,11.59-16.65,20.04-7.26,32.42,9.96,13.13,31.03-.04,21.06-15.57Z"/>
  <path class="cls-1" d="M79.16,227.3c.45-.22,2.35-.91,2.73-.86.87.12.95.99,1.41,1.32,4.84,3.45,12.2.93,14.02-4.64,2.4-7.32-5.12-13.72-11.95-11.19-2.39.88-2.03,2.52-4.96,1.07-1.96-.96-4.33-3.06-5.05-5.16-.63-1.82.18-5.79-3.14-4.5-1.28.49-.27,4.91.13,6.01,1.21,3.36,4.83,6.09,8.2,7.05-.92,2.5-.6,4.67-.26,7.23-3.33.52-7.11,3.2-8.61,6.23-.79,1.6-2.27,6.58.75,6.39,1.63-.1,1.29-1.94,1.69-3.21.81-2.58,2.62-4.56,5.06-5.72Z"/>
  <path class="cls-1" d="M133.29,234.97c1.09.05,7.87-1.59,7.94-2.23-2.83-6.81-2.16-14.63.55-21.36-1.69-.38-5.99-2.58-7.54-2.13-.58.17-2.08,4.23-2.32,5.04-1.17,3.93-1.57,7.99-1.1,12.06.14,1.25,1.56,8.32,2.47,8.61Z"/>
  <path class="cls-1" d="M127.36,208.69c-9.04,1.29-14,11.41-9.71,19.52.5.94,2.26,3.44,3.01,4.08.67.57,5.84,3.05,6.26,2.74-.82-1.87-1.28-3.9-1.59-5.92-.8-5.33-.62-9.64.55-14.88.42-1.88,1.17-3.64,1.46-5.54Z"/>
  <path class="cls-1" d="M147.21,214c-2.86,5.1-2.31,11.47-.76,16.9,3.18-.52,10.55-4.3,10.78-7.79.28-4.12-6.94-7.55-10.02-9.1Z"/>
  <path class="cls-1" d="M50.74,75.36c-4.36,8.94,7.94,18.55,15.38,10.89,5.07-5.21,1.47-13.39,9.51-18.08,3.68-2.14,6.13-1.48,9.8-1.94,13.25-1.65,10.83-19.45-1.09-18.92-11.23.5-8.1,13.82-14.67,19.04-5.68,4.5-15.13,1.22-18.94,9Z"/>
  <path class="cls-1" d="M49.98,56.46c1.51-.57,3.77-.22,5.21.42,2.16.96,1.08,1.51,1.7,3.26,1.76,4.97,8.79,6.19,11.76,1.47,2.25-3.59.25-8.85-3.91-9.94-.4-.11-.92.25-1.39-.17-.21-.19-.69-1.56-.78-1.92-.48-1.9-.22-3.81.84-5.46.52-.81,1.7-1.47,1-2.43-1.29-1.76-3.38,1.36-3.9,2.54-.99,2.24-.73,5.58.52,7.67-1.57,1-2.93,1.82-3.9,3.49-2.09-1.43-5.28-2.18-7.71-1.3-.79.29-3.71,1.77-3.4,2.71.82,2.44,2.65.15,3.96-.34Z"/>
  <path class="cls-1" d="M79.74,84.93c-.34.51-1.9,3.23-1.73,3.63.47,1.07,3.68,2.45,4.67,3.21,2.49-4.62,6.53-8.61,11.62-10.19.32-.34-1.9-4.87-2.44-5.45-.58-.38-5.17,2.11-5.93,2.61-2.48,1.63-4.55,3.72-6.2,6.19Z"/>
  <path class="cls-1" d="M84.53,70.35c-.7-.12-2.91.05-3.66.21-6.49,1.37-9.83,8.8-6.37,14.43.92-1.04,1.56-2.28,2.41-3.38,2.37-3.07,4.68-5.17,8.02-7.19,1.26-.76,2.61-1.45,4.02-1.86-.02-.38-3.8-2.11-4.42-2.22Z"/>
  <path class="cls-1" d="M86.65,93.58c2.29,1,7.54,3.43,9.7,1.36,1.83-1.74.52-7.59-.66-9.6-3.73,1.65-7.53,4.29-9.05,8.24Z"/>
  <path class="cls-1" d="M68.29,375.8c-2.14-3.68-1.48-6.13-1.94-9.8-1.65-13.25-19.45-10.83-18.92,1.08.5,11.23,13.82,8.1,19.04,14.67,4.5,5.68,1.22,15.13,9,18.94,8.94,4.36,18.55-7.94,10.89-15.38-5.21-5.07-13.39-1.46-18.08-9.51Z"/>
  <path class="cls-1" d="M61.72,382.8c-3.59-2.25-8.85-.25-9.94,3.91-.11.4.25.92-.17,1.39-.19.21-1.56.69-1.92.78-1.9.48-3.81.22-5.46-.84-.81-.52-1.47-1.7-2.43-1-1.76,1.29,1.36,3.38,2.54,3.9,2.24.99,5.58.73,7.67-.52,1,1.57,1.82,2.93,3.49,3.9-1.43,2.09-2.18,5.28-1.3,7.71.29.79,1.77,3.71,2.71,3.4,2.44-.82.15-2.65-.34-3.96-.57-1.5-.22-3.77.42-5.21.96-2.16,1.51-1.08,3.26-1.7,4.97-1.76,6.19-8.79,1.47-11.76Z"/>
  <path class="cls-1" d="M81.69,357.14c-.34-.32-4.87,1.9-5.45,2.44-.38.58,2.11,5.17,2.61,5.93,1.63,2.48,3.72,4.55,6.19,6.2.51.34,3.23,1.9,3.63,1.73,1.07-.47,2.45-3.68,3.21-4.67-4.62-2.49-8.61-6.53-10.19-11.62Z"/>
  <path class="cls-1" d="M70.46,366.9c-.12.7.05,2.91.21,3.66,1.37,6.49,8.8,9.83,14.43,6.37-1.04-.93-2.28-1.56-3.38-2.41-3.07-2.37-5.17-4.68-7.19-8.02-.76-1.26-1.45-2.61-1.86-4.02-.38.02-2.11,3.8-2.22,4.42Z"/>
  <path class="cls-1" d="M85.45,355.74c1.65,3.73,4.29,7.53,8.24,9.04,1-2.29,3.43-7.54,1.36-9.7-1.74-1.83-7.59-.52-9.6.66Z"/>
  <circle class="cls-1" cx="227.37" cy="223.54" r="19.02"/>
  <rect class="cls-1" x="163.92" y="215.48" width="20.4" height="15.12"/>
  <rect class="cls-1" x="261.2" y="215.48" width="20.4" height="15.12"/>
  <rect class="cls-1" x="220.46" y="130.69" width="15.12" height="20.4"/>
  <rect class="cls-1" x="220.46" y="171.49" width="15.12" height="20.4"/>
  <rect class="cls-1" x="218.43" y="295.34" width="15.12" height="20.4"/>
  <rect class="cls-1" x="218.43" y="254.54" width="15.12" height="20.4"/>
  <rect class="cls-1" x="107.94" y="100.57" width="15.12" height="20.4" transform="translate(-44.5 114.11) rotate(-45)"/>
  <rect class="cls-1" x="281.02" y="273.65" width="15.12" height="20.4" transform="translate(-116.19 287.19) rotate(-45)"/>
  <rect class="cls-1" x="252.17" y="244.8" width="15.12" height="20.4" transform="translate(-104.24 258.34) rotate(-45)"/>
  <rect class="cls-1" x="309.86" y="302.49" width="15.12" height="20.4" transform="translate(-128.14 316.03) rotate(-45)"/>
  <rect class="cls-1" x="165.63" y="158.26" width="15.12" height="20.4" transform="translate(-68.39 171.8) rotate(-45)"/>
  <rect class="cls-1" x="194.48" y="187.11" width="15.12" height="20.4" transform="translate(-80.34 200.65) rotate(-45)"/>
  <rect class="cls-1" x="136.78" y="129.41" width="15.12" height="20.4" transform="translate(-56.44 142.96) rotate(-45)"/>
  <rect class="cls-1" x="338.71" y="331.34" width="15.12" height="20.4" transform="translate(-140.08 344.88) rotate(-45)"/>
  <rect class="cls-1" x="186.3" y="243.74" width="20.4" height="15.12" transform="translate(-120.14 212.55) rotate(-45)"/>
  <rect class="cls-1" x="157.45" y="272.59" width="20.4" height="15.12" transform="translate(-148.99 200.6) rotate(-45)"/>
  <rect class="cls-1" x="330.53" y="99.51" width="20.4" height="15.12" transform="translate(24.09 272.29) rotate(-45)"/>
  <rect class="cls-1" x="272.84" y="157.2" width="20.4" height="15.12" transform="translate(-33.6 248.39) rotate(-45)"/>
  <rect class="cls-1" x="243.99" y="186.05" width="20.4" height="15.12" transform="translate(-62.45 236.44) rotate(-45)"/>
  <rect class="cls-1" x="128.6" y="301.43" width="20.4" height="15.12" transform="translate(-177.83 188.65) rotate(-45)"/>
  <rect class="cls-1" x="301.68" y="128.35" width="20.4" height="15.12" transform="translate(-4.76 260.34) rotate(-45)"/>
  <rect class="cls-1" x="99.76" y="330.28" width="20.4" height="15.12" transform="translate(-206.68 176.69) rotate(-45)"/>
</svg>