<?xml version="1.0" encoding="UTF-8"?>
<svg id="Capa_2" data-name="Capa 2" xmlns="http://www.w3.org/2000/svg" viewBox="0 0 450 450">
  <defs>
    <style>
      .cls-1 {
        fill: #eee500;
      }
    </style>
  </defs>
  <path class="cls-1" d="M254.23,169.4c-.1,5.72-.19,11.43-.29,17.15-.17,0-.31-.05-.49-.05-69.6-.52-139.19-1.03-208.79-1.55-19.25-.14-19.27,29.77,0,29.91,69.59.52,139.18,1.03,208.77,1.55-.13,7.46-.25,14.91-.38,22.37-.24,14.44,22.19,14.44,22.43,0,.39-23.13.78-46.25,1.17-69.38.24-14.44-22.19-14.44-22.43,0Z"/>
  <path class="cls-1" d="M290.01,152.56c-.39,32.13-.78,64.27-1.17,96.4-.18,14.44,22.26,14.45,22.43,0,.39-32.13.78-64.27,1.17-96.4.18-14.44-22.26-14.45-22.43,0Z"/>
  <path class="cls-1" d="M418.61,169.56c-.24-14.42-22.68-14.47-22.43,0,.39,23.13.78,46.25,1.17,69.38.24,14.42,22.68,14.47,22.43,0-.39-23.13-.78-46.25-1.17-69.38Z"/>
  <path class="cls-1" d="M360.39,152.72c.39,32.13.78,64.27,1.17,96.4.18,14.43,22.61,14.47,22.43,0-.39-32.13-.78-64.27-1.17-96.4-.18-14.43-22.61-14.47-22.43,0Z"/>
  <path class="cls-1" d="M345.42,258.27c.97-1.57,1.61-3.46,1.63-5.76.39-36.81.78-73.63,1.17-110.44.15-14.44-22.28-14.45-22.43,0-.39,36.81-.78,73.63-1.17,110.44-.07,6.55,4.52,10.1,9.56,10.71,1.91,1.2,3.02,1.37,4.05,7.52,2.36,14.18-9.11,30.33-4.56,42.41,2.67,7.08,10.55,7.7,12.92.53,4.29-13-3.19-26.12-3.54-38.03-.17-5.9,1.93-9.83,2.26-15.12.04-.71.09-1.5.13-2.25Z"/>
</svg>