<?xml version="1.0" encoding="UTF-8"?>
<svg id="Capa_1" data-name="Capa 1" xmlns="http://www.w3.org/2000/svg" viewBox="0 0 500 500">
  <path d="M250,387.93c-36.01,0-69.99-11.22-95.67-31.59-26.53-21.05-41.14-49.29-41.14-79.53h25c0,47.49,50.16,86.12,111.81,86.12s111.81-38.63,111.81-86.12h25c0,30.24-14.61,58.48-41.14,79.53-25.68,20.37-59.66,31.59-95.67,31.59Z"/>
  <path d="M251.26,216.46h-2.03c-6.02,0-10.92-4.9-10.92-10.92v-57.13h23.87v57.13c0,6.02-4.9,10.92-10.92,10.92Z"/>
  <rect x="226.86" y="115.01" width="46.78" height="46.78" rx="23.39" ry="23.39"/>
  <circle cx="190.65" cy="250.26" r="21.36"/>
  <circle cx="309.35" cy="250.26" r="21.36"/>
</svg>