<?xml version="1.0" encoding="UTF-8"?>
<svg id="Capa_2" data-name="Capa 2" xmlns="http://www.w3.org/2000/svg" viewBox="0 0 450 450">
  <defs>
    <style>
      .cls-1 {
        fill: #eee500;
      }
    </style>
  </defs>
  <path class="cls-1" d="M206.11,185.78c4.16-4.33,11.33-4.35,15.18-6.34,6.54-3.38,11.61-11.1,19.76-12.19,5.44-.72,16.89,2.88,24.03,3.27,23.92,1.33,50.62.88,73.61-5.69,3.44-.98,16.37-4.47,17.18-7.71.26-1.05-1.2-3.06-1.07-3.25.29-.44,7.84-1.82,10.2-3.03,13.61-7.01,26.56-40.23,20.99-53.94-1.25-3.07-10.54-15.67-13.2-18.76-25.08-29.15-87.88-38.97-123.72-30.71-19.47,4.49-51.97,16.31-60.87,35-11.24,23.59-5.52,38.61,11.65,56.1,2.19,2.23,10.84,7.15,11.58,9.27,2.42,6.91-8.36,33.84-5.32,37.98Z"/>
  <g id="jFH0cd">
    <g>
      <path class="cls-1" d="M174.49,391.67c-6.37,2.22-11.22,1.29-11.67,9.76-6.23-7.55-15.69-11.63-21.05-20.46-15.58-25.69-13.23-59.65,1.07-85.56,3.74-6.78,10.8-12.28,17.25-12.15,1.76.72,1.88,5.45,1.05,6.66s-4.58,2.76-5.57,4.94c10.03,18.57,31.4,28.93,52.2,32.58,1.91-2.13,1.63-3.45,2.8-3.99,1.94-.89,7.24-1.2,7.32,1.92.77,28.68-15.12,56.47-43.4,66.3ZM198.68,360.68c-21.89-5.01-41.26-14.46-57.61-29.78-1.45,6.17-3.34,14.31.71,18.99,12.03,13.92,55.41,30.23,56.9,10.79Z"/>
      <g>
        <path class="cls-1" d="M122.84,194.32c26.09,8.53,50.09,15.29,66.3,42.65-18.37,6.4-29.12,21.33-29.03,40.77-34,2.19-78.19-61.5-55.96-83.41h18.69Z"/>
        <path class="cls-1" d="M253.66,194.32c9.6,14.13-24.81,4.35-21.36,17.68,2.54,9.79,15.82-5.16,35.56-.98,2.87.61,4.62,2.39,4.03,5.05-1.24,5.6-10.52.74-14.31,4.15,10.95,8.3,20.49,18.03,22.89,32.29,1.44,8.55-1.93,17.08-10.28,20.58-15.28,6.41-34.14,5.77-48.03-3.5-9.19-6.13-12.15-16.16-11.54-26.26.56-9.21,5.88-17.64,13.99-24.42.56-5.03-3.21-10.55-.7-14.78,3.59-6.05,11.48-5.31,15.2-9.8h14.54ZM269.06,247.58c-.19-8.42-9.99-16.07-16.08-19.38-5.35-2.9-9.49,3.18-9.91,7.61-.76,7.92,3.72,12.82,9.25,15.73,4.48,2.35,16.91,3.6,16.74-3.96Z"/>
        <path class="cls-1" d="M160.22,194.32c17.03,8.31,33.28,17.74,43.14,35.35,1.47,2.63,1.12,5.84-.75,6.14-2.58.41-5.22-.78-6.25-2.85-9.54-18.96-27.2-28.66-44.44-38.65h8.31Z"/>
        <path class="cls-1" d="M240.51,285.38c6.84,7.44-2.37,24.87-12.62,27.64-16.07,4.34-29.59-.11-42.79-8.84-12.83-8.49-20.04-22.22-15.38-37.21,4.14-13.33,16.04-24.04,32.43-22.94-.96,23.56,15.4,37.32,38.35,41.35Z"/>
      </g>
    </g>
  </g>
</svg>